<svg xmlns="http://www.w3.org/2000/svg" version="1.1" xmlns:xlink="http://www.w3.org/1999/xlink" xmlns:svgjs="http://svgjs.dev/svgjs" width="1500" height="935" viewBox="0 0 1500 935"><g transform="matrix(1,0,0,1,-0.9090909090909918,0.3785425101214628)"><svg viewBox="0 0 396 247" data-background-color="#ffffff" preserveAspectRatio="xMidYMid meet" height="935" width="1500" xmlns="http://www.w3.org/2000/svg" xmlns:xlink="http://www.w3.org/1999/xlink"><g id="tight-bounds" transform="matrix(1,0,0,1,0.2400000000000091,-0.09999999999999432)"><svg viewBox="0 0 395.52 247.2" height="247.2" width="395.52"><g><svg></svg></g><g><svg viewBox="0 0 395.52 247.2" height="247.2" width="395.52"><g transform="matrix(1,0,0,1,75.54432,98.46803678571428)"><svg viewBox="0 0 244.43135999999998 50.26392642857142" height="50.26392642857142" width="244.43135999999998"><g><svg viewBox="0 0 244.43135999999998 50.26392642857142" height="50.26392642857142" width="244.43135999999998"><g><svg viewBox="0 0 244.43135999999998 50.26392642857142" height="50.26392642857142" width="244.43135999999998"><g id="textblocktransform"><svg viewBox="0 0 244.43135999999998 50.26392642857142" height="50.26392642857142" width="244.43135999999998" id="textblock"><g><svg viewBox="0 0 244.43135999999998 50.26392642857142" height="50.26392642857142" width="244.43135999999998"><g transform="matrix(1,0,0,1,0,0)"><svg width="244.43135999999998" viewBox="3.49 -35.5 174.98999999999998 35.99" height="50.26392642857142" data-palette-color="#8cbdb8"><path d="M23.19-8.11L23.19-8.11Q23.19-6.32 22.52-4.76 21.85-3.2 20.68-2.03 19.51-0.85 17.94-0.18 16.38 0.49 14.6 0.49L14.6 0.49 12.11 0.49Q10.33 0.49 8.75-0.18 7.18-0.85 6.01-2.03 4.83-3.2 4.16-4.76 3.49-6.32 3.49-8.11L3.49-8.11 3.49-35.01 6.64-35.01 6.64-8.11Q6.64-6.93 7.08-5.92 7.52-4.91 8.29-4.14 9.06-3.37 10.07-2.93 11.08-2.49 12.26-2.49L12.26-2.49 14.45-2.49Q15.63-2.49 16.64-2.93 17.65-3.37 18.41-4.14 19.17-4.91 19.6-5.92 20.04-6.93 20.04-8.11L20.04-8.11 20.04-35.01 23.19-35.01 23.19-8.11ZM50.41-22.05L50.41-22.05Q50.41-20.26 49.74-18.7 49.07-17.14 47.9-15.97 46.73-14.79 45.15-14.12 43.58-13.45 41.79-13.45L41.79-13.45 33.86-13.45 33.86 0 30.71 0 30.71-35.01 41.79-35.01Q43.58-35.01 45.15-34.34 46.73-33.67 47.9-32.5 49.07-31.32 49.74-29.75 50.41-28.17 50.41-26.39L50.41-26.39 50.41-22.05ZM47.26-22.05L47.26-26.39Q47.26-27.56 46.82-28.58 46.38-29.59 45.62-30.36 44.85-31.13 43.83-31.57 42.82-32.01 41.65-32.01L41.65-32.01 33.86-32.01 33.86-16.46 41.65-16.46Q42.82-16.46 43.83-16.89 44.85-17.33 45.62-18.09 46.38-18.85 46.82-19.86 47.26-20.87 47.26-22.05L47.26-22.05ZM76.12-32.01L59.57-32.01 59.57-18.99 72.97-18.99 72.97-15.99 59.57-15.99 59.57 0 56.42 0 56.42-35.01 76.12-35.01 76.12-32.01ZM101.21 0L97.58 0 88.08-14.94 83.76-14.94 83.76 0 80.61 0 80.61-35.01 91.72-35.01Q93.5-35.01 95.06-34.34 96.62-33.67 97.8-32.5 98.97-31.32 99.64-29.75 100.31-28.17 100.31-26.39L100.31-26.39 100.31-23.56Q100.31-21.78 99.64-20.2 98.97-18.63 97.8-17.46 96.62-16.28 95.06-15.61 93.5-14.94 91.72-14.94L91.72-14.94 101.21 0ZM97.16-23.56L97.16-26.39Q97.16-27.56 96.72-28.58 96.28-29.59 95.52-30.36 94.77-31.13 93.75-31.57 92.74-32.01 91.57-32.01L91.57-32.01 83.76-32.01 83.76-17.94 91.57-17.94Q92.74-17.94 93.75-18.38 94.77-18.82 95.52-19.59 96.28-20.36 96.72-21.37 97.16-22.39 97.16-23.56L97.16-23.56ZM126.41-8.11L126.41-8.11Q126.41-6.32 125.73-4.76 125.06-3.2 123.89-2.03 122.72-0.85 121.16-0.18 119.59 0.49 117.81 0.49L117.81 0.49 115.32 0.49Q113.54 0.49 111.97-0.18 110.39-0.85 109.22-2.03 108.05-3.2 107.38-4.76 106.7-6.32 106.7-8.11L106.7-8.11 106.7-26.9Q106.7-28.69 107.38-30.25 108.05-31.81 109.22-32.98 110.39-34.16 111.97-34.83 113.54-35.5 115.32-35.5L115.32-35.5 117.81-35.5Q119.59-35.5 121.16-34.83 122.72-34.16 123.89-32.98 125.06-31.81 125.73-30.25 126.41-28.69 126.41-26.9L126.41-26.9 126.41-8.11ZM123.26-8.11L123.26-26.9Q123.26-28.08 122.82-29.09 122.38-30.1 121.62-30.86 120.86-31.62 119.85-32.06 118.84-32.5 117.67-32.5L117.67-32.5 115.47-32.5Q114.3-32.5 113.28-32.06 112.27-31.62 111.5-30.86 110.73-30.1 110.29-29.09 109.85-28.08 109.85-26.9L109.85-26.9 109.85-8.11Q109.85-6.93 110.29-5.92 110.73-4.91 111.5-4.14 112.27-3.37 113.28-2.93 114.3-2.49 115.47-2.49L115.47-2.49 117.67-2.49Q118.84-2.49 119.85-2.93 120.86-3.37 121.62-4.14 122.38-4.91 122.82-5.92 123.26-6.93 123.26-8.11L123.26-8.11ZM153.63 0L151.97 0 137.37-25.49 137.07-27 137.07 0 133.92 0 133.92-35.01 135.56-35.01 150.16-9.5 150.48-8.01 150.48-35.01 153.63-35.01 153.63 0ZM178.48-32.01L170.13-32.01 170.13 0 166.98 0 166.98-32.01 158.63-32.01 158.63-35.01 178.48-35.01 178.48-32.01Z" opacity="1" transform="matrix(1,0,0,1,0,0)" fill="#8cbdb8" class="wordmark-text-0" data-fill-palette-color="primary" id="text-0"></path></svg></g></svg></g></svg></g></svg></g></svg></g></svg></g><path d="M191.368 92.468L191.368 31.989 8.147 31.989 8.147 215.211 191.368 215.211 191.368 154.732 186.835 154.732 186.835 210.678 12.679 210.678 12.679 36.522 186.835 36.522 186.835 92.468Z" fill="#8cbdb8" stroke="transparent" data-fill-palette-color="tertiary"></path></svg></g><defs></defs></svg><rect width="395.52" height="247.2" fill="none" stroke="none" visibility="hidden"></rect></g></svg></g></svg>