<svg xmlns="http://www.w3.org/2000/svg" version="1.1" xmlns:xlink="http://www.w3.org/1999/xlink" xmlns:svgjs="http://svgjs.dev/svgjs" width="1500" height="1500" viewBox="0 0 1500 1500"><rect width="1500" height="1500" fill="#8cbdb8"></rect><g transform="matrix(0.22946305644791187,0,0,0.22946305644791187,577.4780931384214,250.40485829959516)"><svg viewBox="0 0 85 247" data-background-color="#8cbdb8" preserveAspectRatio="xMidYMid meet" height="4358" width="1500" xmlns="http://www.w3.org/2000/svg" xmlns:xlink="http://www.w3.org/1999/xlink"><g id="tight-bounds" transform="matrix(1,0,0,1,0.1048599724896917,-0.09999999999999432)"><svg viewBox="0 0 84.79028005502063 247.2" height="247.2" width="84.79028005502063"><g><svg></svg></g><g><svg viewBox="0 0 84.79028005502063 247.2" height="247.2" width="84.79028005502063"><g transform="matrix(1,0,0,1,0,47.215199999999996)"><svg viewBox="0 0 84.79028005502063 152.7696" height="152.7696" width="84.79028005502063"><g><svg viewBox="0 0 84.79028005502063 152.7696" height="152.7696" width="84.79028005502063"><g><svg viewBox="0 0 84.79028005502063 152.7696" height="152.7696" width="84.79028005502063"><g id="textblocktransform"><svg viewBox="0 0 84.79028005502063 152.7696" height="152.7696" width="84.79028005502063" id="textblock"><g><svg viewBox="0 0 84.79028005502063 152.7696" height="152.7696" width="84.79028005502063"><g transform="matrix(1,0,0,1,0,0)"><svg width="84.79028005502063" viewBox="3.49 -35.01 19.700000000000003 35.5" height="152.7696" data-palette-color="#ffffff"><path d="M23.19-8.11L23.19-8.11Q23.19-6.32 22.52-4.76 21.85-3.2 20.68-2.03 19.51-0.85 17.94-0.18 16.38 0.49 14.6 0.49L14.6 0.49 12.11 0.49Q10.33 0.49 8.75-0.18 7.18-0.85 6.01-2.03 4.83-3.2 4.16-4.76 3.49-6.32 3.49-8.11L3.49-8.11 3.49-35.01 6.64-35.01 6.64-8.11Q6.64-6.93 7.08-5.92 7.52-4.91 8.29-4.14 9.06-3.37 10.07-2.93 11.08-2.49 12.26-2.49L12.26-2.49 14.45-2.49Q15.63-2.49 16.64-2.93 17.65-3.37 18.41-4.14 19.17-4.91 19.6-5.92 20.04-6.93 20.04-8.11L20.04-8.11 20.04-35.01 23.19-35.01 23.19-8.11Z" opacity="1" transform="matrix(1,0,0,1,0,0)" fill="#ffffff" class="wordmark-text-0" data-fill-palette-color="primary" id="text-0"></path></svg></g></svg></g></svg></g></svg></g><g></g></svg></g></svg></g><path d="M0 41.215L0 1 84.79 1 84.79 41.215 71.013 41.215 71.013 14.777 13.777 14.777 13.777 41.215 0 41.215M0 205.985L0 246.2 84.79 246.2 84.79 205.985 71.013 205.985 71.013 232.423 13.777 232.423 13.777 205.985 0 205.985" fill="#ffffff" stroke="transparent" data-fill-palette-color="tertiary"></path></svg></g><defs></defs></svg><rect width="84.79028005502063" height="247.2" fill="none" stroke="none" visibility="hidden"></rect></g></svg></g></svg>