<?xml version="1.0" encoding="utf-8"?>
<svg viewBox="256.271 223.483 50.92 52.721" xmlns="http://www.w3.org/2000/svg">
  <g id="g-1" featurekey="hmhgWD-0" transform="matrix(0.878425, 0, 0, 0.773339, 248.322708, 207.469299)" fill="#5782bb" style="">
    <path xmlns="http://www.w3.org/2000/svg" fill-rule="evenodd" clip-rule="evenodd" d="M33.272,20.915c12.203-1,30.722,1.232,29.384,15.334  c-1.061,11.158-29.905,11.934-39.182,8.669C16.605,42.5,9.987,38.146,11.718,31.202C13.411,24.407,23.687,21.7,33.272,20.915z   M14.657,30.711C11.757,44.159,38.036,46.965,52.45,42.5c6.031-1.868,9.266-9.773,4.848-14.416  c-3.739-3.929-16.559-4.96-22.196-5.103C27.719,22.795,15.638,26.162,14.657,30.711z" style="fill: rgb(106, 172, 198);"/>
    <path xmlns="http://www.w3.org/2000/svg" fill-rule="evenodd" clip-rule="evenodd" d="M20.535,35.12c-1.261-12.201,34.025-10.206,33.831-0.53  c-0.175,8.498-23.151,7.481-28.931,4.939C23.685,38.76,21.325,37.396,20.535,35.12z M30.822,29.731  c-2.646,0.159-6.145,1.31-7.073,3.328c2.336,7.66,23.089,7.527,26.917,2.68C50.665,29.36,37.219,29.35,30.822,29.731z" style="fill: rgb(106, 172, 198);"/>
  </g>
  <g id="g-2" featurekey="hmhgWD-0" transform="matrix(0.643333, 0, 0, 0.498547, 250.418823, 236.022842)" fill="#5782bb" style="">
    <path xmlns="http://www.w3.org/2000/svg" d="M 86.846 32.897 L 69.246 15.297 C 67.546 13.597 64.646 13.597 62.946 15.297 L 54.346 23.897 L 48.146 30.097 L 43.246 25.197 C 43.246 25.197 43.246 25.197 43.146 25.097 C 43.146 25.097 43.146 25.097 43.046 24.997 L 34.346 16.297 C 32.546 14.497 29.546 14.497 27.746 16.297 L 10.446 33.897 C 8.646 35.697 8.646 38.697 10.446 40.497 L 19.146 49.197 C 19.146 49.197 19.146 49.197 19.246 49.297 C 19.246 49.297 19.246 49.297 19.346 49.397 L 27.446 57.497 L 27.146 57.797 C 26.946 57.997 26.846 58.197 26.746 58.397 C 25.946 59.197 25.446 60.297 25.446 61.497 C 25.446 62.697 25.946 63.797 26.746 64.597 L 41.046 78.897 C 41.846 79.697 43.046 80.197 44.146 80.197 C 45.346 80.197 46.446 79.697 47.246 78.897 L 48.046 78.097 L 49.446 79.497 C 49.446 79.497 49.546 79.597 49.546 79.597 C 50.046 80.097 51.046 80.597 52.246 80.597 C 53.046 80.597 54.146 80.397 55.346 79.197 L 69.546 64.997 C 71.946 62.597 71.246 60.097 69.846 58.497 L 68.746 57.397 L 78.346 47.797 L 86.946 39.197 C 87.746 38.397 88.246 37.197 88.246 35.997 C 88.146 34.897 87.646 33.697 86.846 32.897 Z M 13.046 36.497 L 30.546 18.997 C 30.746 18.797 30.946 18.697 31.246 18.697 C 31.546 18.697 31.746 18.797 31.946 18.997 L 39.346 26.397 L 20.346 45.197 L 12.946 37.797 C 12.646 37.497 12.646 36.897 13.046 36.497 Z M 44.046 76.497 C 43.946 76.497 43.746 76.497 43.546 76.297 L 29.246 61.997 C 29.046 61.797 29.046 61.597 29.046 61.497 C 29.046 61.397 29.046 61.197 29.246 60.997 L 29.746 60.497 L 29.746 60.497 L 30.746 59.497 L 33.046 57.197 C 33.046 57.197 33.146 57.097 33.146 57.097 C 33.246 56.997 33.446 56.997 33.546 56.997 C 33.646 56.997 33.846 56.997 34.046 57.197 L 48.346 71.497 C 48.646 71.797 48.646 72.297 48.346 72.497 L 46.646 74.197 L 44.546 76.297 C 44.346 76.497 44.146 76.497 44.046 76.497 Z M 66.846 62.297 L 52.646 76.597 C 52.346 76.897 52.246 76.897 52.146 76.897 C 52.146 76.897 52.046 76.897 51.946 76.797 L 50.646 75.497 L 50.946 75.197 L 50.946 75.197 C 51.046 75.097 51.146 74.997 51.246 74.797 C 51.346 74.697 51.446 74.597 51.546 74.497 C 51.646 74.397 51.646 74.297 51.646 74.197 C 51.746 73.997 51.846 73.897 51.946 73.697 C 51.946 73.697 51.946 73.697 51.946 73.697 C 52.546 72.097 52.246 70.197 50.946 68.897 L 36.646 54.497 C 36.446 54.297 36.246 54.097 35.946 53.897 C 35.846 53.797 35.746 53.797 35.646 53.797 C 35.446 53.697 35.346 53.597 35.146 53.497 C 35.046 53.497 34.946 53.397 34.846 53.397 C 34.646 53.297 34.546 53.297 34.346 53.297 C 34.246 53.297 34.146 53.297 34.046 53.297 C 33.846 53.297 33.646 53.197 33.446 53.197 C 33.246 53.197 33.146 53.197 32.946 53.197 C 32.846 53.197 32.646 53.197 32.546 53.197 C 32.246 53.197 32.046 53.297 31.846 53.397 C 31.846 53.397 31.746 53.397 31.746 53.397 C 31.246 53.597 30.746 53.897 30.246 54.297 L 29.946 54.597 L 23.046 47.697 L 41.946 29.097 L 45.546 32.697 L 35.546 42.697 C 34.246 43.997 33.646 46.297 35.546 48.197 L 39.446 52.097 C 39.646 52.297 39.846 52.397 40.046 52.497 C 40.646 52.897 41.346 53.097 42.046 53.097 C 42.246 53.097 42.446 53.097 42.746 52.997 C 42.746 52.997 42.746 52.997 42.846 52.997 C 43.046 52.997 43.246 52.897 43.446 52.797 C 43.446 52.797 43.546 52.797 43.546 52.797 C 43.746 52.697 43.946 52.597 44.146 52.497 C 44.146 52.497 44.246 52.497 44.246 52.397 C 44.446 52.297 44.646 52.097 44.846 51.897 L 51.346 45.397 L 66.746 60.797 L 66.946 60.997 C 67.346 61.297 67.546 61.597 66.846 62.297 Z M 66.046 54.797 L 54.046 42.797 L 55.746 41.097 C 56.146 40.697 56.246 40.297 56.246 39.797 C 56.246 39.297 56.046 38.897 55.746 38.497 C 55.046 37.797 53.846 37.797 53.146 38.497 L 50.146 41.497 L 42.346 49.297 C 42.246 49.397 42.146 49.397 42.146 49.497 C 42.146 49.497 42.146 49.497 42.146 49.497 L 38.246 45.597 C 38.146 45.497 38.146 45.497 38.146 45.397 C 38.146 45.297 38.246 45.297 38.246 45.197 L 55.746 27.697 L 66.146 38.097 L 74.446 46.397 L 66.046 54.797 Z M 84.246 36.597 L 76.946 43.897 L 61.846 28.797 L 58.246 25.197 L 65.546 17.897 C 65.746 17.697 65.946 17.697 66.146 17.697 C 66.246 17.697 66.546 17.697 66.746 17.897 L 84.346 35.497 C 84.546 35.697 84.546 35.897 84.546 36.097 C 84.446 36.197 84.446 36.397 84.246 36.597 Z" style="fill: rgb(106, 172, 198);"/>
  </g>
</svg>