<?xml version="1.0" encoding="utf-8"?>
<svg viewBox="406.696 195.366 326.023 60.215" xmlns="http://www.w3.org/2000/svg">
  <g id="g-1" featurekey="hmhgWD-0" transform="matrix(0.924091, 0, 0, 0.773339, 402.542572, 179.351547)" fill="#5782bb" style="">
    <path xmlns="http://www.w3.org/2000/svg" fill-rule="evenodd" clip-rule="evenodd" d="M33.272,20.915c12.203-1,30.722,1.232,29.384,15.334  c-1.061,11.158-29.905,11.934-39.182,8.669C16.605,42.5,9.987,38.146,11.718,31.202C13.411,24.407,23.687,21.7,33.272,20.915z   M14.657,30.711C11.757,44.159,38.036,46.965,52.45,42.5c6.031-1.868,9.266-9.773,4.848-14.416  c-3.739-3.929-16.559-4.96-22.196-5.103C27.719,22.795,15.638,26.162,14.657,30.711z" style="fill: rgb(106, 172, 198);"/>
    <path xmlns="http://www.w3.org/2000/svg" fill-rule="evenodd" clip-rule="evenodd" d="M20.535,35.12c-1.261-12.201,34.025-10.206,33.831-0.53  c-0.175,8.498-23.151,7.481-28.931,4.939C23.685,38.76,21.325,37.396,20.535,35.12z M30.822,29.731  c-2.646,0.159-6.145,1.31-7.073,3.328c2.336,7.66,23.089,7.527,26.917,2.68C50.665,29.36,37.219,29.35,30.822,29.731z" style="fill: rgb(106, 172, 198);"/>
  </g>
  <g id="g-2" featurekey="hmhgWD-0" transform="matrix(0.755773, 0, 0, 0.606428, 399.821655, 206.704681)" fill="#5782bb" style="">
    <path xmlns="http://www.w3.org/2000/svg" d="M 86.846 32.897 L 69.246 15.297 C 67.546 13.597 64.646 13.597 62.946 15.297 L 54.346 23.897 L 48.146 30.097 L 43.246 25.197 C 43.246 25.197 43.246 25.197 43.146 25.097 C 43.146 25.097 43.146 25.097 43.046 24.997 L 34.346 16.297 C 32.546 14.497 29.546 14.497 27.746 16.297 L 10.446 33.897 C 8.646 35.697 8.646 38.697 10.446 40.497 L 19.146 49.197 C 19.146 49.197 19.146 49.197 19.246 49.297 C 19.246 49.297 19.246 49.297 19.346 49.397 L 27.446 57.497 L 27.146 57.797 C 26.946 57.997 26.846 58.197 26.746 58.397 C 25.946 59.197 25.446 60.297 25.446 61.497 C 25.446 62.697 25.946 63.797 26.746 64.597 L 41.046 78.897 C 41.846 79.697 43.046 80.197 44.146 80.197 C 45.346 80.197 46.446 79.697 47.246 78.897 L 48.046 78.097 L 49.446 79.497 C 49.446 79.497 49.546 79.597 49.546 79.597 C 50.046 80.097 51.046 80.597 52.246 80.597 C 53.046 80.597 54.146 80.397 55.346 79.197 L 69.546 64.997 C 71.946 62.597 71.246 60.097 69.846 58.497 L 68.746 57.397 L 78.346 47.797 L 86.946 39.197 C 87.746 38.397 88.246 37.197 88.246 35.997 C 88.146 34.897 87.646 33.697 86.846 32.897 Z M 13.046 36.497 L 30.546 18.997 C 30.746 18.797 30.946 18.697 31.246 18.697 C 31.546 18.697 31.746 18.797 31.946 18.997 L 39.346 26.397 L 20.346 45.197 L 12.946 37.797 C 12.646 37.497 12.646 36.897 13.046 36.497 Z M 44.046 76.497 C 43.946 76.497 43.746 76.497 43.546 76.297 L 29.246 61.997 C 29.046 61.797 29.046 61.597 29.046 61.497 C 29.046 61.397 29.046 61.197 29.246 60.997 L 29.746 60.497 L 29.746 60.497 L 30.746 59.497 L 33.046 57.197 C 33.046 57.197 33.146 57.097 33.146 57.097 C 33.246 56.997 33.446 56.997 33.546 56.997 C 33.646 56.997 33.846 56.997 34.046 57.197 L 48.346 71.497 C 48.646 71.797 48.646 72.297 48.346 72.497 L 46.646 74.197 L 44.546 76.297 C 44.346 76.497 44.146 76.497 44.046 76.497 Z M 66.846 62.297 L 52.646 76.597 C 52.346 76.897 52.246 76.897 52.146 76.897 C 52.146 76.897 52.046 76.897 51.946 76.797 L 50.646 75.497 L 50.946 75.197 L 50.946 75.197 C 51.046 75.097 51.146 74.997 51.246 74.797 C 51.346 74.697 51.446 74.597 51.546 74.497 C 51.646 74.397 51.646 74.297 51.646 74.197 C 51.746 73.997 51.846 73.897 51.946 73.697 C 51.946 73.697 51.946 73.697 51.946 73.697 C 52.546 72.097 52.246 70.197 50.946 68.897 L 36.646 54.497 C 36.446 54.297 36.246 54.097 35.946 53.897 C 35.846 53.797 35.746 53.797 35.646 53.797 C 35.446 53.697 35.346 53.597 35.146 53.497 C 35.046 53.497 34.946 53.397 34.846 53.397 C 34.646 53.297 34.546 53.297 34.346 53.297 C 34.246 53.297 34.146 53.297 34.046 53.297 C 33.846 53.297 33.646 53.197 33.446 53.197 C 33.246 53.197 33.146 53.197 32.946 53.197 C 32.846 53.197 32.646 53.197 32.546 53.197 C 32.246 53.197 32.046 53.297 31.846 53.397 C 31.846 53.397 31.746 53.397 31.746 53.397 C 31.246 53.597 30.746 53.897 30.246 54.297 L 29.946 54.597 L 23.046 47.697 L 41.946 29.097 L 45.546 32.697 L 35.546 42.697 C 34.246 43.997 33.646 46.297 35.546 48.197 L 39.446 52.097 C 39.646 52.297 39.846 52.397 40.046 52.497 C 40.646 52.897 41.346 53.097 42.046 53.097 C 42.246 53.097 42.446 53.097 42.746 52.997 C 42.746 52.997 42.746 52.997 42.846 52.997 C 43.046 52.997 43.246 52.897 43.446 52.797 C 43.446 52.797 43.546 52.797 43.546 52.797 C 43.746 52.697 43.946 52.597 44.146 52.497 C 44.146 52.497 44.246 52.497 44.246 52.397 C 44.446 52.297 44.646 52.097 44.846 51.897 L 51.346 45.397 L 66.746 60.797 L 66.946 60.997 C 67.346 61.297 67.546 61.597 66.846 62.297 Z M 66.046 54.797 L 54.046 42.797 L 55.746 41.097 C 56.146 40.697 56.246 40.297 56.246 39.797 C 56.246 39.297 56.046 38.897 55.746 38.497 C 55.046 37.797 53.846 37.797 53.146 38.497 L 50.146 41.497 L 42.346 49.297 C 42.246 49.397 42.146 49.397 42.146 49.497 C 42.146 49.497 42.146 49.497 42.146 49.497 L 38.246 45.597 C 38.146 45.497 38.146 45.497 38.146 45.397 C 38.146 45.297 38.246 45.297 38.246 45.197 L 55.746 27.697 L 66.146 38.097 L 74.446 46.397 L 66.046 54.797 Z M 84.246 36.597 L 76.946 43.897 L 61.846 28.797 L 58.246 25.197 L 65.546 17.897 C 65.746 17.697 65.946 17.697 66.146 17.697 C 66.246 17.697 66.546 17.697 66.746 17.897 L 84.346 35.497 C 84.546 35.697 84.546 35.897 84.546 36.097 C 84.446 36.197 84.446 36.397 84.246 36.597 Z" style="fill: rgb(106, 172, 198);"/>
  </g>
  <g id="SvgjsG2599" featurekey="1RRcwp-0" transform="matrix(2.559505, 0, 0, 2.559505, 472.109924, 190.986664)" fill="#111111">
    <path d="M12.64 20 l-2.68 0 l0 -6.9 l-5.78 0 l0 6.9 l-2.68 0 l0 -14.24 l2.68 0 l0 4.72 l5.78 0 l0 -4.72 l2.68 0 l0 14.24 z M19.4 20.22 c-1.24 0 -2.46 -0.5 -3.4 -1.4 c-0.9 -0.94 -1.4 -2.16 -1.4 -3.4 c0 -1.26 0.5 -2.48 1.4 -3.4 c0.92 -0.88 2.12 -1.38 3.4 -1.38 c1.32 0 2.52 0.5 3.38 1.38 c0.92 0.92 1.42 2.12 1.42 3.4 s-0.5 2.48 -1.42 3.4 c-0.9 0.9 -2.1 1.4 -3.38 1.4 z M19.4 12.92 c-1.34 0 -2.44 1.12 -2.44 2.5 s1.1 2.5 2.44 2.5 c1.36 0 2.46 -1.12 2.46 -2.5 s-1.1 -2.5 -2.46 -2.5 z M34.839999999999996 20 l-2.52 0 l0 -4.9 c0 -1.08 -0.86 -1.92 -1.94 -1.92 c-1.04 0 -1.94 0.86 -1.94 1.92 l0 4.9 l-2.5 0 l0 -9.16 l2.5 0 l0 0.66 c0.62 -0.62 1.28 -0.84 1.94 -0.84 c1.2 0 2.32 0.46 3.16 1.28 c0.84 0.86 1.3 1.98 1.3 3.16 l0 4.9 z M40.96 20.22 l-0.02 0 c-0.58 0 -1.18 -0.14 -1.74 -0.4 c-0.52 -0.22 -1 -0.58 -1.44 -1.04 c-0.7 -0.76 -1.12 -1.76 -1.22 -2.8 c-0.02 -0.18 -0.04 -0.36 -0.04 -0.56 c0 -0.4 0.06 -0.82 0.16 -1.24 c0.18 -0.8 0.56 -1.54 1.1 -2.1 c0.4 -0.44 0.86 -0.78 1.44 -1.06 c0.54 -0.26 1.14 -0.38 1.76 -0.38 c0.64 0 1.22 0.12 1.76 0.38 c0.6 0.28 1.08 0.64 1.44 1.06 c0.52 0.56 0.92 1.28 1.12 2.1 c0.1 0.38 0.14 0.78 0.14 1.24 l0 0.46 l-6.72 0 l0.02 0.14 c0.26 1.24 1.2 2.14 2.24 2.14 l0.02 0 c0.58 -0.04 1.22 -0.4 1.6 -0.72 l0.22 -0.18 l1.66 1.44 l-0.3 0.26 c-0.22 0.2 -0.5 0.44 -0.8 0.6 l-0.02 0 c-0.72 0.42 -1.5 0.64 -2.38 0.66 z M40.96 12.719999999999999 c-0.78 0 -1.56 0.54 -1.98 1.38 l-0.08 0.16 l4.14 0 l-0.08 -0.16 c-0.46 -0.86 -1.22 -1.38 -2 -1.38 z M50.32 20.08 c-0.28 0 -0.58 -0.04 -0.94 -0.1 c-1 -0.2 -1.94 -0.64 -2.68 -1.3 l-0.3 -0.24 l1.5 -1.66 l0.28 0.26 c0.88 0.74 1.6 0.88 2.06 0.88 c0.34 0 0.58 -0.04 0.82 -0.16 c0.3 -0.12 0.44 -0.32 0.44 -0.6 c0 -0.24 -0.14 -0.54 -1.32 -0.74 c-1.08 -0.22 -1.76 -0.44 -2.08 -0.62 c-0.42 -0.24 -0.76 -0.56 -1 -0.96 s-0.36 -0.84 -0.36 -1.34 c0 -0.52 0.16 -1.02 0.48 -1.48 c0.26 -0.38 0.64 -0.68 1.2 -0.96 c0.46 -0.22 0.98 -0.32 1.6 -0.32 c0.22 0 0.44 0.02 0.64 0.04 c0.88 0.14 1.76 0.52 2.48 1.08 l0.3 0.24 l-1.42 1.64 l-0.28 -0.22 c-0.7 -0.56 -1.3 -0.66 -1.66 -0.66 c-0.26 0 -0.5 0.04 -0.72 0.14 c-0.26 0.14 -0.4 0.36 -0.4 0.5 c0 0.28 0.2 0.48 1.24 0.72 c1.36 0.32 1.8 0.48 2.08 0.6 c0.56 0.32 0.8 0.58 1 0.84 c0.3 0.42 0.44 0.94 0.44 1.5 c0 0.58 -0.16 1.1 -0.46 1.52 s-0.7 0.78 -1.28 1.06 c-0.46 0.22 -1.06 0.34 -1.66 0.34 z M61.78 20 l-2.4 0 c-0.88 0 -1.7 -0.34 -2.3 -0.94 c-0.62 -0.62 -0.94 -1.42 -0.94 -2.3 l0 -3.8 l-1.28 0 l0 -2.06 l1.28 0 l0 -3.6 l2.38 0 l0 3.6 l2.66 0 l0 2.06 l-2.66 0 l0 3.76 c0 0.5 0.44 0.96 0.88 0.96 l1.74 0 z M64.56 25.22 c-1.46 0 -2.84 -0.54 -3.84 -1.52 l-0.46 -0.48 l2.24 -1.62 l0.3 0.3 c0.5 0.42 1.14 0.66 1.76 0.66 c1.52 0 2.8 -1.3 2.8 -2.84 l0 -11.28 l-3.52 0 l0 -2.7 l6.24 0 l0 13.98 c0 1.48 -0.58 2.88 -1.62 3.92 c-0.5 0.52 -1.12 0.9 -1.78 1.18 c-0.66 0.26 -1.38 0.4 -2.12 0.4 z M76.77999999999999 20.22 c-1.24 0 -2.46 -0.5 -3.4 -1.4 c-0.9 -0.94 -1.4 -2.16 -1.4 -3.4 c0 -1.26 0.5 -2.48 1.4 -3.4 c0.92 -0.88 2.12 -1.38 3.4 -1.38 c1.32 0 2.52 0.5 3.38 1.38 c0.92 0.92 1.42 2.12 1.42 3.4 s-0.5 2.48 -1.42 3.4 c-0.9 0.9 -2.1 1.4 -3.38 1.4 z M76.77999999999999 12.92 c-1.34 0 -2.44 1.12 -2.44 2.5 s1.1 2.5 2.44 2.5 c1.36 0 2.46 -1.12 2.46 -2.5 s-1.1 -2.5 -2.46 -2.5 z M88.42 20.18 c-0.72 0 -1.54 -0.1 -2.26 -0.8 l-0.1 -0.1 l0 0.72 l-2.42 0 l0 -14.68 l2.42 0 l0 6.32 l0.1 -0.08 c0.66 -0.6 1.42 -0.9 2.26 -0.9 c1.28 0 2.48 0.48 3.38 1.38 c0.9 0.92 1.4 2.12 1.4 3.38 s-0.5 2.46 -1.4 3.38 c-0.92 0.9 -2.12 1.38 -3.38 1.38 z M86.06 15.42 c0 1.32 1.08 2.42 2.36 2.42 s2.36 -1.1 2.36 -2.42 c0 -1.3 -1.08 -2.42 -2.36 -2.42 s-2.36 1.12 -2.36 2.42 z M98.42 20.08 c-0.28 0 -0.58 -0.04 -0.94 -0.1 c-1 -0.2 -1.94 -0.64 -2.68 -1.3 l-0.3 -0.24 l1.5 -1.66 l0.28 0.26 c0.88 0.74 1.6 0.88 2.06 0.88 c0.34 0 0.58 -0.04 0.82 -0.16 c0.3 -0.12 0.44 -0.32 0.44 -0.6 c0 -0.24 -0.14 -0.54 -1.32 -0.74 c-1.08 -0.22 -1.76 -0.44 -2.08 -0.62 c-0.42 -0.24 -0.76 -0.56 -1 -0.96 s-0.36 -0.84 -0.36 -1.34 c0 -0.52 0.16 -1.02 0.48 -1.48 c0.26 -0.38 0.64 -0.68 1.2 -0.96 c0.46 -0.22 0.98 -0.32 1.6 -0.32 c0.22 0 0.44 0.02 0.64 0.04 c0.88 0.14 1.76 0.52 2.48 1.08 l0.3 0.24 l-1.42 1.64 l-0.28 -0.22 c-0.7 -0.56 -1.3 -0.66 -1.66 -0.66 c-0.26 0 -0.5 0.04 -0.72 0.14 c-0.26 0.14 -0.4 0.36 -0.4 0.5 c0 0.28 0.2 0.48 1.24 0.72 c1.36 0.32 1.8 0.48 2.08 0.6 c0.56 0.32 0.8 0.58 1 0.84 c0.3 0.42 0.44 0.94 0.44 1.5 c0 0.58 -0.16 1.1 -0.46 1.52 s-0.7 0.78 -1.28 1.06 c-0.46 0.22 -1.06 0.34 -1.66 0.34 z" style="fill: rgb(106, 172, 198);"/>
  </g>
</svg>